<svg width="256" height="256" version="1.1" viewBox="0 0 67.733 67.733" xmlns="http://www.w3.org/2000/svg"><g transform="translate(0 -229.27)"><g transform="matrix(1.1577 0 0 1.1577 -254.5 263.79)" fill="var(--texte, #2a4898)" stroke-width="1px" aria-label="Les Chacals"><path d="m249.14 18.08q0 0.1123-0.12207 0.21484-0.11718 0.10254-0.30761 0.19043-0.18555 0.08301-0.41504 0.15625-0.22461 0.06836-0.44434 0.11719-0.21484 0.04883-0.39551 0.07324-0.18066 0.0293-0.26855 0.0293-0.16602 0-0.30762-0.03906-0.13672-0.03906-0.23926-0.11719-0.10254-0.08301-0.16113-0.20996-0.0537-0.12695-0.0537-0.30762 0-1.3037 0.01-2.5977t0.01-2.6074q0-0.20508-0.01-0.40527-0.01-0.2002-0.01-0.40527 0-0.04883 5e-3 -0.1123 5e-3 -0.06836 0.0244-0.12207 0.0195-0.05859 0.0586-0.09766 0.0391-0.03906 0.10742-0.03906 0.0684 0 0.1416 0.01953 0.0781 0.01953 0.14161 0.05859 0.0684 0.03906 0.11718 0.09766 0.0537 0.05371 0.0781 0.12695 0.0244 0.08789 0.0195 0.19043 0 0.09766 0 0.2002 0.0244 1.2988 0.0342 2.5781 0.0146 1.2793 0.0146 2.5781 0 0.14648 0 0.29297 5e-3 0.14648 0.0195 0.29297 0.13183-0.0049 0.32226-0.04394 0.19043-0.03906 0.38086-0.09766 0.19532-0.06348 0.36621-0.1416 0.1709-0.07813 0.26856-0.16602 0.0439-0.04395 0.0928-0.08789 0.0488-0.04883 0.12207-0.04883 0.0635 0 0.13184 0.04395 0.0732 0.04395 0.13183 0.1123 0.0586 0.06348 0.0977 0.13672 0.0391 0.07324 0.0391 0.13672z"/><path d="m251.1 17.899q0 0.14648-0.083 0.30274-0.0781 0.15625-0.20507 0.28809-0.12696 0.12695-0.29297 0.20996-0.16114 0.08301-0.32227 0.08301-0.22949 0-0.39551-0.08789-0.16601-0.09277-0.28808-0.24414-0.12207-0.15625-0.2002-0.35156-0.0732-0.19531-0.11719-0.40039-0.0439-0.20996-0.0635-0.41504-0.0146-0.20996-0.0146-0.38086 0-0.14648 0.0146-0.34668 0.0195-0.2002 0.0586-0.41504 0.0439-0.21484 0.11719-0.4248 0.0732-0.20996 0.18066-0.37598 0.11231-0.16602 0.26367-0.26856 0.15625-0.10254 0.35645-0.10254 0.15625 0 0.27832 0.06348 0.12695 0.06348 0.20996 0.1709 0.0879 0.10254 0.13184 0.23926 0.0488 0.13672 0.0488 0.2832 0 0.19043-0.0879 0.41504t-0.22949 0.43457q-0.13672 0.20996-0.3125 0.38086-0.1709 0.16602-0.34179 0.25391 0.01 0.08789 0.0391 0.25879 0.0293 0.16602 0.0781 0.33203 0.0537 0.16602 0.12207 0.28809 0.0733 0.12207 0.1709 0.12207 0.0488 0 0.083-0.0293 0.0391-0.0293 0.0684-0.07813t0.0488-0.10742q0.0244-0.05859 0.0439-0.1123l0.0293-0.06836q0.01-0.01465 0.01-0.01953 5e-3 -0.0049 0.01-0.01465 0.0342-0.06348 0.0635-0.11719 0.0342-0.05371 0.0928-0.09277h-5e-3q0.0195-0.01953 0.0391-0.01953 0.0244-0.0049 0.044-0.0049 0.0537 0 0.11718 0.03418 0.0635 0.03418 0.11719 0.08789 0.0537 0.04883 0.0879 0.1123 0.0342 0.05859 0.0342 0.11719zm-0.9668-2.1533q0-0.04883-5e-3 -0.10254-5e-3 -0.05371-0.0244-0.09277-0.0684 0.08301-0.12207 0.2002-0.0488 0.1123-0.083 0.23926-0.0342 0.12207-0.0586 0.24902-0.0195 0.12695-0.0293 0.23438 0.12695-0.15137 0.22461-0.3418 0.0976-0.19531 0.0976-0.38574z"/><path d="m252.97 15.214q0 0.05859-0.0439 0.09766-0.0391 0.03906-0.0976 0.06836-0.0586 0.02441-0.12207 0.03418-0.0586 0.0098-0.0977 0.0098-0.0586 0-0.1123-0.0098-0.0537-0.01465-0.10743-0.0293-0.0537-0.01465-0.10254-0.02441-0.0488-0.01465-0.10253-0.01465-0.0733 0-0.14649 0.02442-0.0732 0.02441-0.13183 0.06836-0.0586 0.04395-0.0977 0.10742-0.0342 0.06348-0.0342 0.1416 0 0.11719 0.0488 0.23438 0.0488 0.1123 0.12695 0.22949 0.083 0.11719 0.18555 0.23926 0.10742 0.11719 0.22461 0.23926 0.1416 0.15625 0.2832 0.31738 0.14648 0.16113 0.25879 0.33691 0.11719 0.17578 0.19043 0.37109 0.0732 0.19531 0.0732 0.41016 0 0.18555-0.0635 0.33203-0.0586 0.14648-0.17089 0.24902-0.10743 0.10254-0.26368 0.15625-0.15136 0.05859-0.33203 0.05859-0.0488 0-0.15136-0.01953-0.0977-0.01953-0.22461-0.05371-0.12696-0.03906-0.26368-0.08301-0.13183-0.04394-0.24414-0.09277-0.10742-0.05371-0.18066-0.10254-0.0684-0.05371-0.0684-0.09766 0-0.05859 0.0537-0.11719 0.0537-0.06348 0.12695-0.1123 0.0733-0.05371 0.15137-0.08789 0.083-0.03418 0.13672-0.03418 0.0732 0 0.15137 0.03418 0.083 0.03418 0.16601 0.07813 0.0928 0.04883 0.18555 0.08789 0.0977 0.03906 0.2002 0.03906 0.0781 0 0.0879-0.05371 0.0146-0.05371 0.0146-0.12207 0-0.1709-0.0586-0.32227-0.0586-0.15625-0.15137-0.30273-0.0928-0.14648-0.21484-0.2832-0.12207-0.1416-0.24414-0.27832-0.12695-0.13672-0.24902-0.27344-0.11719-0.13672-0.20997-0.27832-0.0928-0.14648-0.15136-0.29785-0.0537-0.15137-0.0537-0.32227 0-0.20996 0.0928-0.37598 0.0928-0.1709 0.23926-0.29297 0.15136-0.12207 0.33691-0.18555 0.19043-0.06836 0.38086-0.06836 0.0635 0 0.19531 0.0293 0.13184 0.02441 0.25879 0.07324 0.12696 0.04883 0.22461 0.11719 0.0977 0.06836 0.0977 0.15137z"/><path d="m242.14 24.129q0 0.10986-0.0366 0.21973-0.0293 0.10254-0.0659 0.20508-0.16113 0.41748-0.3955 0.77637-0.23438 0.35156-0.542 0.60791-0.30761 0.25635-0.6958 0.40283-0.38818 0.14648-0.85693 0.14648-0.62256 0-1.0693-0.26367-0.44677-0.26367-0.76171-0.68115-0.31495-0.4248-0.52002-0.94482-0.19776-0.52002-0.31495-1.04-0.17578-0.75439-0.27099-1.5088-0.0952-0.76172-0.0952-1.5234 0-0.44678 0.0366-0.92285 0.0439-0.47607 0.14649-0.9375 0.10254-0.46875 0.27832-0.90088 0.17578-0.43945 0.43945-0.80566 0.26367-0.37354 0.62256-0.65918 0.36621-0.28564 0.84961-0.44678 0.17578-0.06592 0.36621-0.08789 0.19043-0.0293 0.38086-0.0293 0.38086 0 0.7251 0.12451 0.34424 0.12451 0.60058 0.35156 0.26368 0.22705 0.41016 0.54932 0.15381 0.32227 0.15381 0.71777 0 0.13184-0.0586 0.19775-0.0586 0.06592-0.20508 0.06592-0.271 0-0.42481-0.08789-0.14648-0.08789-0.2417-0.21973-0.0952-0.13184-0.16113-0.28564-0.0586-0.15381-0.14648-0.28564-0.0879-0.13184-0.23438-0.21973t-0.40283-0.08789-0.4834 0.10254q-0.21973 0.09521-0.41016 0.25635-0.1831 0.16113-0.33691 0.36621-0.14648 0.19775-0.26367 0.40283-0.30762 0.57129-0.43213 1.2231-0.12451 0.64453-0.12451 1.2964 0 0.21973 0.0146 0.57129 0.022 0.34424 0.0586 0.76172 0.0439 0.41748 0.11719 0.88623 0.0732 0.46143 0.17578 0.9082 0.10986 0.44678 0.25635 0.85693 0.15381 0.41016 0.34423 0.71777 0.19776 0.30762 0.43946 0.49072 0.24902 0.18311 0.55664 0.18311 0.31494 0 0.55664-0.16113 0.2417-0.16846 0.41016-0.41748 0.17578-0.25635 0.28564-0.54932 0.11719-0.30029 0.18311-0.55664 0.022-0.07324 0.0366-0.13184 0.022-0.05859 0.0513-0.10254 0.0366-0.04395 0.0879-0.06592t0.14648-0.02197q0.10254 0 0.2417 0.04395 0.14648 0.03662 0.271 0.10986 0.13183 0.07324 0.21972 0.17578 0.0879 0.10254 0.0879 0.22705z"/><path d="m245.83 25.901q0 0.14648-0.0952 0.2124-0.0952 0.06592-0.23437 0.06592-0.0879 0-0.18311-0.01465-0.0952-0.02197-0.1831-0.04395-0.15381-0.04395-0.2417-0.10986-0.0806-0.06592-0.12451-0.14648-0.0439-0.08789-0.0586-0.19043-7e-3 -0.10254-0.0146-0.22705 0-0.03662-7e-3 -0.06592 0-0.0293 0-0.05859-0.022-0.41748-0.0439-0.85693-0.0146-0.43945-0.0146-0.85693 0-0.2124 0-0.4248 7e-3 -0.2124 0.0146-0.4248 7e-3 -0.2124 7e-3 -0.41748 7e-3 -0.2124 7e-3 -0.4248 0-0.04395-7e-3 -0.08057 0-0.04395-7e-3 -0.08789-0.19043 0.27832-0.33692 0.62256-0.13916 0.33691-0.24902 0.70312-0.10986 0.35889-0.19043 0.7251-0.0732 0.35889-0.12451 0.68848l-0.022 0.15381q-0.0366 0.25635-0.0732 0.52734-0.0366 0.26367-0.0366 0.52734 0 0.10986 0.0366 0.2417 0.0146 0.05859 0.022 0.11719 0.0146 0.05127 0.0146 0.13184 0 0.17578-0.0879 0.23438-0.0879 0.06592-0.23437 0.06592-0.0879 0-0.19776-0.01465-0.10253-0.01465-0.20507-0.05127-0.0952-0.0293-0.18311-0.08057-0.0879-0.05127-0.13916-0.13184-0.0439-0.09521-0.0879-0.50537-0.0366-0.41016-0.0732-1.0181-0.0293-0.60791-0.0586-1.3623-0.0293-0.76172-0.0586-1.5601-0.022-0.79834-0.0439-1.582-0.0146-0.78369-0.0293-1.4429-7e-3 -0.65918-0.0147-1.1426-7e-3 -0.49072-7e-3 -0.68848 0-0.14648 0.0366-0.26367 0.0439-0.12451 0.23437-0.12451 0.19776 0 0.37354 0.09521 0.17578 0.08789 0.25634 0.27832 0.0147 0.0293 0.0293 0.2417 0.0146 0.20508 0.0293 0.53467 0.0146 0.32227 0.0293 0.74707 0.0146 0.41748 0.0293 0.87158 0.0147 0.44678 0.0293 0.90088 0.0147 0.4541 0.0293 0.84961l0.0366 1.084q0.0879-0.22705 0.21972-0.47607 0.13184-0.24902 0.3003-0.4541 0.17578-0.20508 0.38818-0.33691 0.21973-0.13184 0.4834-0.13184 0.32226 0 0.50537 0.16846 0.1831 0.16846 0.271 0.41748 0.0952 0.24902 0.11718 0.53467 0.022 0.28564 0.022 0.52002 0 0.14648-7e-3 0.28564 0 0.13916-7e-3 0.27832-7e-3 0.14648-0.0147 0.29297 0 0.13916 0 0.28564 0 0.50537 0.022 1.04 0.022 0.52734 0.10986 1.04l0.0146 0.10254q0.0147 0.04395 0.022 0.10254 7e-3 0.05859 7e-3 0.10986z"/><path d="m249.59 26.202q0 0.14648-0.0732 0.19775-0.0732 0.05859-0.20508 0.05859-0.34423 0-0.49804-0.1831-0.14649-0.18311-0.21973-0.4834-0.022-0.10254-0.0439-0.20508-0.022-0.10986-0.0366-0.2124-0.0146-0.09521-0.0293-0.13184-0.0147-0.03662-0.0293-0.13916-0.0879 0.2124-0.21973 0.44678-0.12451 0.22705-0.29297 0.4248-0.16845 0.19043-0.38085 0.31494-0.20508 0.12451-0.45411 0.12451-0.26367 0-0.43945-0.12451-0.17578-0.13184-0.27832-0.32227-0.0952-0.19775-0.13916-0.43213-0.0366-0.23438-0.0366-0.44678 0-0.49805 0.0952-1.0767 0.10254-0.58594 0.27832-1.1646 0.17579-0.58594 0.41016-1.1206 0.23438-0.54199 0.5127-0.94482v0.0073l0.0439-0.06592q0.0806-0.10986 0.18311-0.23438 0.10986-0.13184 0.25634-0.13184 0.13916 0 0.2417 0.12451 0.10254 0.11719 0.14649 0.24902 0.19043 0.03662 0.30762 0.09521 0.11718 0.05127 0.1831 0.13184 0.0659 0.08057 0.0879 0.19043 0.022 0.10254 0.022 0.22705 0 0.05127 0 0.10986 0 0.05859-7e-3 0.11719-7e-3 0.05859-7e-3 0.13916t0 0.14648q0 0.07324 0.022 0.19043 0.0293 0.11719 0.0586 0.2417l0.0513 0.271q0.0366 0.2124 0.0586 0.4834 0.0293 0.271 0.0659 0.54199 0.0293 0.27832 0.0586 0.54199 0.0293 0.25635 0.0586 0.47608l0.17578 1.084 0.022 0.12451q0.0146 0.09521 0.0293 0.17578 0.022 0.08057 0.022 0.1831zm-1.6772-4.2114q0-0.01465-7e-3 -0.04395-7e-3 -0.03662-0.0146-0.07324-0.16846 0.35889-0.3003 0.78369-0.12451 0.41748-0.2124 0.85693-0.0806 0.43213-0.12451 0.87158-0.0366 0.43213-0.0366 0.82031 0 0.03662 0 0.06592t7e-3 0.05859v0.0073q0.17578-0.271 0.30029-0.71045 0.13184-0.44678 0.21973-0.93018 0.0879-0.49072 0.12451-0.94482 0.0439-0.46142 0.0439-0.76172z"/><path d="m252.94 24.656q0 0.15381-0.0513 0.31494-0.0513 0.16113-0.11719 0.30762-0.0879 0.2124-0.2124 0.41748-0.12451 0.19775-0.28565 0.35889-0.16113 0.15381-0.36621 0.24902-0.20508 0.09521-0.46142 0.09521-0.45411 0-0.7544-0.22705-0.30029-0.22705-0.47607-0.57129-0.17578-0.34424-0.24903-0.75439-0.0659-0.41016-0.0659-0.77637 0-0.271 0.022-0.63721 0.022-0.37354 0.0806-0.76904 0.0659-0.39551 0.18311-0.78369 0.12451-0.38818 0.31494-0.68848 0.19043-0.30762 0.46143-0.49805 0.27832-0.19043 0.65918-0.19043 0.0806 0 0.23437 0.0293 0.15381 0.0293 0.30029 0.08789 0.15381 0.05127 0.26368 0.14648 0.11718 0.08789 0.11718 0.20508 0 0.10986-0.10253 0.16846-0.0952 0.05859-0.23438 0.08789-0.13184 0.02197-0.27832 0.0293-0.13916 0-0.22705 0h-0.13184q-0.20508 0.1831-0.33691 0.54199-0.13184 0.35156-0.20508 0.75439-0.0732 0.40283-0.10254 0.79834-0.0293 0.38818-0.0293 0.63721 0 0.35156 0.0513 0.6958 0.0586 0.33691 0.22706 0.63721 0.0366 0.06592 0.10253 0.15381 0.0733 0.08057 0.16114 0.08057 0.0659 0 0.13183-0.10986 0.0733-0.10986 0.13184-0.25635 0.0586-0.14648 0.0952-0.28564 0.0366-0.13916 0.0513-0.20508 7e-3 -0.0293 7e-3 -0.06592t0-0.07324q0-0.06592 0-0.12451 7e-3 -0.06592 0.022-0.10254 0.0513-0.12451 0.13184-0.16846 0.0879-0.04395 0.2124-0.04395 0.10986 0 0.23437 0.0293 0.12452 0.0293 0.23438 0.09521 0.10986 0.06592 0.1831 0.16846 0.0733 0.10254 0.0733 0.2417z"/><path d="m256.38 26.202q0 0.14648-0.0732 0.19775-0.0732 0.05859-0.20508 0.05859-0.34424 0-0.49805-0.1831-0.14648-0.18311-0.21972-0.4834-0.022-0.10254-0.0439-0.20508-0.022-0.10986-0.0366-0.2124-0.0146-0.09521-0.0293-0.13184-0.0146-0.03662-0.0293-0.13916-0.0879 0.2124-0.21973 0.44678-0.12451 0.22705-0.29297 0.4248-0.16846 0.19043-0.38086 0.31494-0.20508 0.12451-0.4541 0.12451-0.26367 0-0.43945-0.12451-0.17579-0.13184-0.27832-0.32227-0.0952-0.19775-0.13916-0.43213-0.0366-0.23438-0.0366-0.44678 0-0.49805 0.0952-1.0767 0.10254-0.58594 0.27832-1.1646 0.17578-0.58594 0.41016-1.1206 0.23437-0.54199 0.51269-0.94482v0.0073l0.0439-0.06592q0.0806-0.10986 0.1831-0.23438 0.10986-0.13184 0.25635-0.13184 0.13916 0 0.2417 0.12451 0.10254 0.11719 0.14648 0.24902 0.19043 0.03662 0.30762 0.09521 0.11719 0.05127 0.18311 0.13184 0.0659 0.08057 0.0879 0.19043 0.022 0.10254 0.022 0.22705 0 0.05127 0 0.10986 0 0.05859-7e-3 0.11719-7e-3 0.05859-7e-3 0.13916t0 0.14648q0 0.07324 0.022 0.19043 0.0293 0.11719 0.0586 0.2417l0.0513 0.271q0.0366 0.2124 0.0586 0.4834 0.0293 0.271 0.0659 0.54199 0.0293 0.27832 0.0586 0.54199 0.0293 0.25635 0.0586 0.47608l0.17578 1.084 0.022 0.12451q0.0147 0.09521 0.0293 0.17578 0.022 0.08057 0.022 0.1831zm-1.6772-4.2114q0-0.01465-7e-3 -0.04395-7e-3 -0.03662-0.0146-0.07324-0.16846 0.35889-0.30029 0.78369-0.12451 0.41748-0.21241 0.85693-0.0806 0.43213-0.12451 0.87158-0.0366 0.43213-0.0366 0.82031 0 0.03662 0 0.06592t7e-3 0.05859v0.0073q0.17578-0.271 0.30029-0.71045 0.13184-0.44678 0.21973-0.93018 0.0879-0.49072 0.12451-0.94482 0.0439-0.46142 0.0439-0.76172z"/><path d="m258.71 26.509q0 0.10254-0.0513 0.16846-0.0513 0.06592-0.13184 0.10254-0.0732 0.04395-0.16846 0.05859-0.0879 0.02197-0.16113 0.02197-0.25635 0-0.44678-0.14648-0.19043-0.14648-0.32959-0.38086-0.13916-0.22705-0.22705-0.52002-0.0879-0.30029-0.14648-0.59326-0.0586-0.30029-0.0879-0.57129-0.0293-0.27832-0.0439-0.47607-0.0659-0.68115-0.0952-1.3843-0.022-0.70312-0.022-1.3916 0-1.8823 0.13183-3.728 0-0.0293 0-0.06592 7e-3 -0.03662 7e-3 -0.07324 7e-3 -0.15381 0.0146-0.35156 7e-3 -0.20508 0.022-0.40283 0.0146-0.19775 0.0293-0.35889 0.022-0.16846 0.0513-0.23438v0.0073q0.0293-0.10254 0.0806-0.15381 0.0513-0.05127 0.17578-0.05127 0.26367 0 0.44678 0.17578 0.1831 0.17578 0.1831 0.43945 0 0.05859-7e-3 0.11719 0 0.05127-7e-3 0.10254-7e-3 0.05127-0.0146 0.10254 0 0.04395 0 0.08057-0.022 0.28564-0.0366 0.57129-7e-3 0.27832-0.022 0.56396-0.0366 0.62988-0.0586 1.2598-0.0146 0.62256-0.0146 1.2598 0 0.271 7e-3 0.71045t0.0293 0.95947q0.022 0.5127 0.0586 1.062 0.0439 0.54932 0.10986 1.0474 0.0659 0.49805 0.15381 0.90088 0.0952 0.40283 0.21972 0.62256 0.0659 0.0293 0.12452 0.09521 0.0659 0.05859 0.10986 0.13916 0.0513 0.07324 0.0806 0.15381 0.0366 0.08789 0.0366 0.16113z"/><path d="m261.37 20.928q0 0.08789-0.0659 0.14648-0.0586 0.05859-0.14648 0.10254-0.0879 0.03662-0.18311 0.05127-0.0879 0.01465-0.14648 0.01465-0.0879 0-0.16846-0.01465-0.0806-0.02197-0.16113-0.04395-0.0806-0.02197-0.15381-0.03662-0.0732-0.02197-0.15381-0.02197-0.10986 0-0.21972 0.03662-0.10987 0.03662-0.19776 0.10254-0.0879 0.06592-0.14648 0.16113-0.0513 0.09521-0.0513 0.2124 0 0.17578 0.0732 0.35156 0.0732 0.16846 0.19043 0.34424 0.12451 0.17578 0.27832 0.35889 0.16113 0.17578 0.33691 0.35889 0.21241 0.23438 0.42481 0.47607 0.21973 0.2417 0.38818 0.50537 0.17578 0.26367 0.28565 0.55664 0.10986 0.29297 0.10986 0.61524 0 0.27832-0.0952 0.49805-0.0879 0.21973-0.25635 0.37354-0.16113 0.15381-0.39551 0.23438-0.22705 0.08789-0.49805 0.08789-0.0732 0-0.22705-0.0293-0.14648-0.0293-0.33691-0.08057-0.19043-0.05859-0.39551-0.12451-0.19775-0.06592-0.36621-0.13916-0.16113-0.08057-0.271-0.15381-0.10254-0.08057-0.10254-0.14648 0-0.08789 0.0806-0.17578 0.0806-0.09521 0.19043-0.16846 0.10986-0.08057 0.22705-0.13184 0.12451-0.05127 0.20508-0.05127 0.10986 0 0.22705 0.05127 0.12451 0.05127 0.24902 0.11719 0.13916 0.07324 0.27832 0.13184 0.14649 0.05859 0.3003 0.05859 0.11718 0 0.13183-0.08057 0.022-0.08057 0.022-0.18311 0-0.25635-0.0879-0.4834-0.0879-0.23438-0.22706-0.4541-0.13916-0.21973-0.32226-0.4248-0.18311-0.2124-0.36621-0.41748-0.19043-0.20508-0.37354-0.41016-0.17578-0.20508-0.31494-0.41748-0.13916-0.21973-0.22705-0.44678-0.0806-0.22705-0.0806-0.4834 0-0.31494 0.13916-0.56396 0.13916-0.25635 0.35889-0.43945 0.22705-0.18311 0.50537-0.27832 0.28565-0.10254 0.57129-0.10254 0.0952 0 0.29297 0.04395 0.19775 0.03662 0.38818 0.10986 0.19043 0.07324 0.33692 0.17578 0.14648 0.10254 0.14648 0.22705z"/></g><g transform="matrix(.743 0 0 .743 -983.79 -1096)" fill-rule="evenodd"><path transform="matrix(.3561 0 0 .3561 1324.1 1783.7)" d="m158.98 8c-1.2383 0.0025016-2.1632 0.58607-3.3984 1.4043-1.2378 0.81971-2.667 1.9651-4.25 3.4004-3.1654 2.8705-6.9217 6.885-10.604 11.6-7.2159 9.2398-17.199 33.014-18.521 44.289-12.097 5.1165-23.086 18.362-27.148 34.84-0.86661 0.33923-7.514 9.9521-16.164 13.729-4.5596 1.9907-9.1265 4.0828-12.594 5.918-1.7338 0.91771-3.1844 1.762-4.2715 2.5391-0.54366 0.38865-0.99704 0.75605-1.3711 1.1621-0.37433 0.40606-0.7793 0.86514-0.7793 1.707 0 1.2238 0.3673 3.1192 0.91602 5.7207 0.549 2.6015 0.28145 1.8882 1.2949 4.9141 1.0562 3.1461 3.28 2.971 4.0801 5.2754 16.887-5.4168 32.268-9.6163 46.955-20.621 0.19377-0.15164 0.43257-0.23436 0.67969-0.23633 0.99747 0.00253 1.4967 1.2058 0.79492 1.9141-12.444 11.481-30.55 17.891-46.74 24.23 0.9076 0.79395 1.4551 2.3029 3.4492 3.2305 2.0573 0.95675 4.4644 1.7048 6.8008 1.0039 0.69025-0.2078 3.8439-0.94457 8.0469-1.9746 4.2033-1.0303 9.5746-2.3882 15.137-3.9805 5.5624-1.5922 11.311-3.4121 16.291-5.375 3.9402 10.476 21.871 14.015 24.873 26.221 9.4422-1.9054-0.06811-20.712 1.6777-19.465 7.9682 4.6152 14.368 3.7305 21.006 10.783 0.08144-6.4793-1.0391-13.515-3.7773-18.725 8.4507 0.26116 14.55 4.0969 21.619 9.6523 2.1171-7.9646-2.1449-14.269-7.0078-18.91 8.0909-2.8801 12.429 2.34 17.984 6.2363l0.71289-1.0371c2.2162-3.2013 1.6647-7.6547-0.05078-12.424-1.713-4.7688-4.657-9.1065-8.1562-15.033-5.5492-9.3993-11.82-16.99-15.367-20.727-1.0972-1.1557-1.9237-1.8905-2.6777-2.5 0.46728-1.5334 3.9527-13.01 7.3672-26.514 1.8242-7.2142 3.5477-14.745 4.6328-21.145 1.0851-6.3993 1.6628-11.489 0.6875-14.654l-0.34571-1.1406-1.1797 0.1582c-0.71945 0.098286-1.122 0.3956-1.6348 0.75195s-1.0688 0.81722-1.6953 1.3867c-1.253 1.139-2.7737 2.7054-4.4805 4.6191-0.31452 0.35262-0.69234 0.83916-1.0254 1.2285-0.328 14.601-1.2652 35.986-5.9512 46.57 2.214-20.582 2.7603-37.218 1.7226-51.936-1.3246-7.8905-3.6806-14.428-7.5371-18.088zm-26.947 80.775c1.2814 0.031784 2.4733 0.8218 2.9726 2.0938 0.66596 1.6962-0.1634 3.5939-1.8594 4.2598l-9.4727 3.7207c-0.06995 0.027268-0.14264 0.014737-0.21289 0.03711-0.19662 0.77277-0.53676 1.5002-1.0039 2.1465-2.0502 2.8301-6.0063 3.4641-8.8379 1.416-2.8331-2.0508-3.466-6.0095-1.4141-8.8418 2.0524-2.8307 6.0111-3.4626 8.8418-1.4102 0.17609 0.12988 0.34403 0.26873 0.50586 0.41602l0.00781-0.003906c0.78968 1.0881 1.6432 2.2859 1.8594 4.5781 0.70843-0.50544 0.74512-2.9171-0.28125-5.2383l7.6016-2.9453c0.42403-0.16657 0.86582-0.23916 1.293-0.22852z" color="#000000" color-rendering="auto" dominant-baseline="auto" fill="var(--tete, #c3880c)" image-rendering="auto" shape-rendering="auto" solid-color="#000000" style="font-feature-settings:normal;font-variant-alternates:normal;font-variant-caps:normal;font-variant-ligatures:normal;font-variant-numeric:normal;font-variant-position:normal;isolation:auto;mix-blend-mode:normal;shape-padding:0;text-decoration-color:#000000;text-decoration-line:none;text-decoration-style:solid;text-indent:0;text-orientation:mixed;text-transform:none;white-space:normal"/><path transform="matrix(.3561 0 0 .3561 1324.1 1783.7)" d="m158.13 9.8223a1.0737 1.0737 0 0 0-0.66406 0.26563c-16.366 14.55-28.4 37.214-32.502 57.416a1.0737 1.0737 0 0 0 1.2402 1.2773c6.0866-1.08 10.503-0.89654 14.896 0.53125 4.3934 1.4278 8.8118 4.1507 14.689 8.252a1.0737 1.0737 0 0 0 1.6758-1.0469c-2.6054-16.774-1.0669-32.437 1.7871-65.537a1.0737 1.0737 0 0 0-1.123-1.1582z" fill="var(--details, #e1a62a)"/><path d="m1379.6 1820.9-0.207 0.9785 0.4883 0.1035c1.3207 0.2801 1.9672 0.9659 2.3437 1.6973 0.2219 0.431 0.2038 0.736 0.2598 1.1074-1.4352-0.6074-3.0434-1.1059-5.2656-0.3653l-0.7754 0.2579 0.584 0.5742c1.3341 1.3067 1.8496 2.2725 2.2226 3.4707-1.691-0.6726-3.5294-1.0088-5.4726-0.6543l-0.4903 0.09 0.1778 0.9844 0.4922-0.09c2.1111-0.3852 4.1153-0.018 5.8652 0.9023l0.9473 0.498-0.2266-1.0468c-0.3397-1.5683-1.0082-2.7607-2.2031-4.1074 1.8521-0.3648 3.215 0.057 4.6152 0.7109l0.7109 0.332v-0.7851c0-0.4626-0.067-1.3934-0.5527-2.336-0.4853-0.9426-1.4293-1.8802-3.0254-2.2187z" color="#000000" color-rendering="auto" dominant-baseline="auto" fill="var(--details, #e1a62a)" image-rendering="auto" shape-rendering="auto" solid-color="#000000" style="font-feature-settings:normal;font-variant-alternates:normal;font-variant-caps:normal;font-variant-ligatures:normal;font-variant-numeric:normal;font-variant-position:normal;isolation:auto;mix-blend-mode:normal;shape-padding:0;text-decoration-color:#000000;text-decoration-line:none;text-decoration-style:solid;text-indent:0;text-orientation:mixed;text-transform:none;white-space:normal"/></g></g></svg>
