<svg width="240" height="121.84" version="1.1" viewBox="0 0 63.5 32.237" xmlns="http://www.w3.org/2000/svg"><g transform="translate(-2.1166 -247.01)"><g transform="matrix(1.3195 0 0 1.3195 -279.64 235.82)" fill="var(--texte, #2a4898)" stroke-width="1px" aria-label="Les Chacals"><path d="m249.14 18.08q0 0.1123-0.12207 0.21484-0.11718 0.10254-0.30761 0.19043-0.18555 0.08301-0.41504 0.15625-0.22461 0.06836-0.44434 0.11719-0.21484 0.04883-0.39551 0.07324-0.18066 0.0293-0.26855 0.0293-0.16602 0-0.30762-0.03906-0.13672-0.03906-0.23926-0.11719-0.10254-0.08301-0.16113-0.20996-0.0537-0.12695-0.0537-0.30762 0-1.3037 0.01-2.5977t0.01-2.6074q0-0.20508-0.01-0.40527-0.01-0.2002-0.01-0.40527 0-0.04883 5e-3 -0.1123 5e-3 -0.06836 0.0244-0.12207 0.0195-0.05859 0.0586-0.09766 0.0391-0.03906 0.10742-0.03906 0.0684 0 0.1416 0.01953 0.0781 0.01953 0.14161 0.05859 0.0684 0.03906 0.11718 0.09766 0.0537 0.05371 0.0781 0.12695 0.0244 0.08789 0.0195 0.19043 0 0.09766 0 0.2002 0.0244 1.2988 0.0342 2.5781 0.0146 1.2793 0.0146 2.5781 0 0.14648 0 0.29297 5e-3 0.14648 0.0195 0.29297 0.13183-0.0049 0.32226-0.04394 0.19043-0.03906 0.38086-0.09766 0.19532-0.06348 0.36621-0.1416 0.1709-0.07813 0.26856-0.16602 0.0439-0.04395 0.0928-0.08789 0.0488-0.04883 0.12207-0.04883 0.0635 0 0.13184 0.04395 0.0732 0.04395 0.13183 0.1123 0.0586 0.06348 0.0977 0.13672t0.0391 0.13672z"/><path d="m251.1 17.899q0 0.14648-0.083 0.30274-0.0781 0.15625-0.20507 0.28809-0.12696 0.12695-0.29297 0.20996-0.16114 0.08301-0.32227 0.08301-0.22949 0-0.39551-0.08789-0.16601-0.09277-0.28808-0.24414-0.12207-0.15625-0.2002-0.35156-0.0732-0.19531-0.11719-0.40039-0.0439-0.20996-0.0635-0.41504-0.0146-0.20996-0.0146-0.38086 0-0.14648 0.0146-0.34668 0.0195-0.2002 0.0586-0.41504 0.0439-0.21484 0.11719-0.4248 0.0732-0.20996 0.18066-0.37598 0.11231-0.16602 0.26367-0.26856 0.15625-0.10254 0.35645-0.10254 0.15625 0 0.27832 0.06348 0.12695 0.06348 0.20996 0.1709 0.0879 0.10254 0.13184 0.23926 0.0488 0.13672 0.0488 0.2832 0 0.19043-0.0879 0.41504t-0.22949 0.43457q-0.13672 0.20996-0.3125 0.38086-0.1709 0.16602-0.34179 0.25391 0.01 0.08789 0.0391 0.25879 0.0293 0.16602 0.0781 0.33203 0.0537 0.16602 0.12207 0.28809 0.0733 0.12207 0.1709 0.12207 0.0488 0 0.083-0.0293 0.0391-0.0293 0.0684-0.07813t0.0488-0.10742q0.0244-0.05859 0.0439-0.1123l0.0293-0.06836q0.01-0.01465 0.01-0.01953 5e-3 -0.0049 0.01-0.01465 0.0342-0.06348 0.0635-0.11719 0.0342-0.05371 0.0928-0.09277h-5e-3q0.0195-0.01953 0.0391-0.01953 0.0244-0.0049 0.044-0.0049 0.0537 0 0.11718 0.03418 0.0635 0.03418 0.11719 0.08789 0.0537 0.04883 0.0879 0.1123 0.0342 0.05859 0.0342 0.11719zm-0.9668-2.1533q0-0.04883-5e-3 -0.10254t-0.0244-0.09277q-0.0684 0.08301-0.12207 0.2002-0.0488 0.1123-0.083 0.23926-0.0342 0.12207-0.0586 0.24902-0.0195 0.12695-0.0293 0.23438 0.12695-0.15137 0.22461-0.3418 0.0976-0.19531 0.0976-0.38574z"/><path d="m252.97 15.214q0 0.05859-0.0439 0.09766-0.0391 0.03906-0.0976 0.06836-0.0586 0.02441-0.12207 0.03418-0.0586 0.0098-0.0977 0.0098-0.0586 0-0.1123-0.0098-0.0537-0.01465-0.10743-0.0293-0.0537-0.01465-0.10254-0.02441-0.0488-0.01465-0.10253-0.01465-0.0733 0-0.14649 0.02442-0.0732 0.02441-0.13183 0.06836-0.0586 0.04395-0.0977 0.10742-0.0342 0.06348-0.0342 0.1416 0 0.11719 0.0488 0.23438 0.0488 0.1123 0.12695 0.22949 0.083 0.11719 0.18555 0.23926 0.10742 0.11719 0.22461 0.23926 0.1416 0.15625 0.2832 0.31738 0.14648 0.16113 0.25879 0.33691 0.11719 0.17578 0.19043 0.37109 0.0732 0.19531 0.0732 0.41016 0 0.18555-0.0635 0.33203-0.0586 0.14648-0.17089 0.24902-0.10743 0.10254-0.26368 0.15625-0.15136 0.05859-0.33203 0.05859-0.0488 0-0.15136-0.01953-0.0977-0.01953-0.22461-0.05371-0.12696-0.03906-0.26368-0.08301-0.13183-0.04394-0.24414-0.09277-0.10742-0.05371-0.18066-0.10254-0.0684-0.05371-0.0684-0.09766 0-0.05859 0.0537-0.11719 0.0537-0.06348 0.12695-0.1123 0.0733-0.05371 0.15137-0.08789 0.083-0.03418 0.13672-0.03418 0.0732 0 0.15137 0.03418 0.083 0.03418 0.16601 0.07813 0.0928 0.04883 0.18555 0.08789 0.0977 0.03906 0.2002 0.03906 0.0781 0 0.0879-0.05371 0.0146-0.05371 0.0146-0.12207 0-0.1709-0.0586-0.32227-0.0586-0.15625-0.15137-0.30273-0.0928-0.14648-0.21484-0.2832-0.12207-0.1416-0.24414-0.27832-0.12695-0.13672-0.24902-0.27344-0.11719-0.13672-0.20997-0.27832-0.0928-0.14648-0.15136-0.29785-0.0537-0.15137-0.0537-0.32227 0-0.20996 0.0928-0.37598 0.0928-0.1709 0.23926-0.29297 0.15136-0.12207 0.33691-0.18555 0.19043-0.06836 0.38086-0.06836 0.0635 0 0.19531 0.0293 0.13184 0.02441 0.25879 0.07324 0.12696 0.04883 0.22461 0.11719 0.0977 0.06836 0.0977 0.15137z"/><path d="m242.14 24.129q0 0.10986-0.0366 0.21973-0.0293 0.10254-0.0659 0.20508-0.16113 0.41748-0.3955 0.77637-0.23438 0.35156-0.542 0.60791-0.30761 0.25635-0.6958 0.40283-0.38818 0.14648-0.85693 0.14648-0.62256 0-1.0693-0.26367-0.44677-0.26367-0.76171-0.68115-0.31495-0.4248-0.52002-0.94482-0.19776-0.52002-0.31495-1.04-0.17578-0.75439-0.27099-1.5088-0.0952-0.76172-0.0952-1.5234 0-0.44678 0.0366-0.92285 0.0439-0.47607 0.14649-0.9375 0.10254-0.46875 0.27832-0.90088 0.17578-0.43945 0.43945-0.80566 0.26367-0.37354 0.62256-0.65918 0.36621-0.28564 0.84961-0.44678 0.17578-0.06592 0.36621-0.08789 0.19043-0.0293 0.38086-0.0293 0.38086 0 0.7251 0.12451t0.60058 0.35156q0.26368 0.22705 0.41016 0.54932 0.15381 0.32227 0.15381 0.71777 0 0.13184-0.0586 0.19775-0.0586 0.06592-0.20508 0.06592-0.271 0-0.42481-0.08789-0.14648-0.08789-0.2417-0.21973-0.0952-0.13184-0.16113-0.28564-0.0586-0.15381-0.14648-0.28564-0.0879-0.13184-0.23438-0.21973t-0.40283-0.08789-0.4834 0.10254q-0.21973 0.09521-0.41016 0.25635-0.1831 0.16113-0.33691 0.36621-0.14648 0.19775-0.26367 0.40283-0.30762 0.57129-0.43213 1.2231-0.12451 0.64453-0.12451 1.2964 0 0.21973 0.0146 0.57129 0.022 0.34424 0.0586 0.76172 0.0439 0.41748 0.11719 0.88623 0.0732 0.46143 0.17578 0.9082 0.10986 0.44678 0.25635 0.85693 0.15381 0.41016 0.34423 0.71777 0.19776 0.30762 0.43946 0.49072 0.24902 0.18311 0.55664 0.18311 0.31494 0 0.55664-0.16113 0.2417-0.16846 0.41016-0.41748 0.17578-0.25635 0.28564-0.54932 0.11719-0.30029 0.18311-0.55664 0.022-0.07324 0.0366-0.13184 0.022-0.05859 0.0513-0.10254 0.0366-0.04395 0.0879-0.06592t0.14648-0.02197q0.10254 0 0.2417 0.04395 0.14648 0.03662 0.271 0.10986 0.13183 0.07324 0.21972 0.17578 0.0879 0.10254 0.0879 0.22705z"/><path d="m245.83 25.901q0 0.14648-0.0952 0.2124t-0.23437 0.06592q-0.0879 0-0.18311-0.01465-0.0952-0.02197-0.1831-0.04395-0.15381-0.04395-0.2417-0.10986-0.0806-0.06592-0.12451-0.14648-0.0439-0.08789-0.0586-0.19043-7e-3 -0.10254-0.0146-0.22705 0-0.03662-7e-3 -0.06592 0-0.0293 0-0.05859-0.022-0.41748-0.0439-0.85693-0.0146-0.43945-0.0146-0.85693 0-0.2124 0-0.4248 7e-3 -0.2124 0.0146-0.4248 7e-3 -0.2124 7e-3 -0.41748 7e-3 -0.2124 7e-3 -0.4248 0-0.04395-7e-3 -0.08057 0-0.04395-7e-3 -0.08789-0.19043 0.27832-0.33692 0.62256-0.13916 0.33691-0.24902 0.70312-0.10986 0.35889-0.19043 0.7251-0.0732 0.35889-0.12451 0.68848l-0.022 0.15381q-0.0366 0.25635-0.0732 0.52734-0.0366 0.26367-0.0366 0.52734 0 0.10986 0.0366 0.2417 0.0146 0.05859 0.022 0.11719 0.0146 0.05127 0.0146 0.13184 0 0.17578-0.0879 0.23438-0.0879 0.06592-0.23437 0.06592-0.0879 0-0.19776-0.01465-0.10253-0.01465-0.20507-0.05127-0.0952-0.0293-0.18311-0.08057-0.0879-0.05127-0.13916-0.13184-0.0439-0.09521-0.0879-0.50537-0.0366-0.41016-0.0732-1.0181-0.0293-0.60791-0.0586-1.3623-0.0293-0.76172-0.0586-1.5601-0.022-0.79834-0.0439-1.582-0.0146-0.78369-0.0293-1.4429-7e-3 -0.65918-0.0147-1.1426-7e-3 -0.49072-7e-3 -0.68848 0-0.14648 0.0366-0.26367 0.0439-0.12451 0.23437-0.12451 0.19776 0 0.37354 0.09521 0.17578 0.08789 0.25634 0.27832 0.0147 0.0293 0.0293 0.2417 0.0146 0.20508 0.0293 0.53467 0.0146 0.32227 0.0293 0.74707 0.0146 0.41748 0.0293 0.87158 0.0147 0.44678 0.0293 0.90088 0.0147 0.4541 0.0293 0.84961l0.0366 1.084q0.0879-0.22705 0.21972-0.47607 0.13184-0.24902 0.3003-0.4541 0.17578-0.20508 0.38818-0.33691 0.21973-0.13184 0.4834-0.13184 0.32226 0 0.50537 0.16846 0.1831 0.16846 0.271 0.41748 0.0952 0.24902 0.11718 0.53467 0.022 0.28564 0.022 0.52002 0 0.14648-7e-3 0.28564 0 0.13916-7e-3 0.27832-7e-3 0.14648-0.0147 0.29297 0 0.13916 0 0.28564 0 0.50537 0.022 1.04 0.022 0.52734 0.10986 1.04l0.0146 0.10254q0.0147 0.04395 0.022 0.10254 7e-3 0.05859 7e-3 0.10986z"/><path d="m249.59 26.202q0 0.14648-0.0732 0.19775-0.0732 0.05859-0.20508 0.05859-0.34423 0-0.49804-0.1831-0.14649-0.18311-0.21973-0.4834-0.022-0.10254-0.0439-0.20508-0.022-0.10986-0.0366-0.2124-0.0146-0.09521-0.0293-0.13184-0.0147-0.03662-0.0293-0.13916-0.0879 0.2124-0.21973 0.44678-0.12451 0.22705-0.29297 0.4248-0.16845 0.19043-0.38085 0.31494-0.20508 0.12451-0.45411 0.12451-0.26367 0-0.43945-0.12451-0.17578-0.13184-0.27832-0.32227-0.0952-0.19775-0.13916-0.43213-0.0366-0.23438-0.0366-0.44678 0-0.49805 0.0952-1.0767 0.10254-0.58594 0.27832-1.1646 0.17579-0.58594 0.41016-1.1206 0.23438-0.54199 0.5127-0.94482v0.0073l0.0439-0.06592q0.0806-0.10986 0.18311-0.23438 0.10986-0.13184 0.25634-0.13184 0.13916 0 0.2417 0.12451 0.10254 0.11719 0.14649 0.24902 0.19043 0.03662 0.30762 0.09521 0.11718 0.05127 0.1831 0.13184 0.0659 0.08057 0.0879 0.19043 0.022 0.10254 0.022 0.22705 0 0.05127 0 0.10986t-7e-3 0.11719q-7e-3 0.05859-7e-3 0.13916t0 0.14648q0 0.07324 0.022 0.19043 0.0293 0.11719 0.0586 0.2417l0.0513 0.271q0.0366 0.2124 0.0586 0.4834 0.0293 0.271 0.0659 0.54199 0.0293 0.27832 0.0586 0.54199 0.0293 0.25635 0.0586 0.47608l0.17578 1.084 0.022 0.12451q0.0146 0.09521 0.0293 0.17578 0.022 0.08057 0.022 0.1831zm-1.6772-4.2114q0-0.01465-7e-3 -0.04395-7e-3 -0.03662-0.0146-0.07324-0.16846 0.35889-0.3003 0.78369-0.12451 0.41748-0.2124 0.85693-0.0806 0.43213-0.12451 0.87158-0.0366 0.43213-0.0366 0.82031 0 0.03662 0 0.06592t7e-3 0.05859v0.0073q0.17578-0.271 0.30029-0.71045 0.13184-0.44678 0.21973-0.93018 0.0879-0.49072 0.12451-0.94482 0.0439-0.46142 0.0439-0.76172z"/><path d="m252.94 24.656q0 0.15381-0.0513 0.31494t-0.11719 0.30762q-0.0879 0.2124-0.2124 0.41748-0.12451 0.19775-0.28565 0.35889-0.16113 0.15381-0.36621 0.24902t-0.46142 0.09521q-0.45411 0-0.7544-0.22705t-0.47607-0.57129-0.24903-0.75439q-0.0659-0.41016-0.0659-0.77637 0-0.271 0.022-0.63721 0.022-0.37354 0.0806-0.76904 0.0659-0.39551 0.18311-0.78369 0.12451-0.38818 0.31494-0.68848 0.19043-0.30762 0.46143-0.49805 0.27832-0.19043 0.65918-0.19043 0.0806 0 0.23437 0.0293 0.15381 0.0293 0.30029 0.08789 0.15381 0.05127 0.26368 0.14648 0.11718 0.08789 0.11718 0.20508 0 0.10986-0.10253 0.16846-0.0952 0.05859-0.23438 0.08789-0.13184 0.02197-0.27832 0.0293-0.13916 0-0.22705 0h-0.13184q-0.20508 0.1831-0.33691 0.54199-0.13184 0.35156-0.20508 0.75439-0.0732 0.40283-0.10254 0.79834-0.0293 0.38818-0.0293 0.63721 0 0.35156 0.0513 0.6958 0.0586 0.33691 0.22706 0.63721 0.0366 0.06592 0.10253 0.15381 0.0733 0.08057 0.16114 0.08057 0.0659 0 0.13183-0.10986 0.0733-0.10986 0.13184-0.25635 0.0586-0.14648 0.0952-0.28564t0.0513-0.20508q7e-3 -0.0293 7e-3 -0.06592t0-0.07324q0-0.06592 0-0.12451 7e-3 -0.06592 0.022-0.10254 0.0513-0.12451 0.13184-0.16846 0.0879-0.04395 0.2124-0.04395 0.10986 0 0.23437 0.0293 0.12452 0.0293 0.23438 0.09521 0.10986 0.06592 0.1831 0.16846 0.0733 0.10254 0.0733 0.2417z"/><path d="m256.38 26.202q0 0.14648-0.0732 0.19775-0.0732 0.05859-0.20508 0.05859-0.34424 0-0.49805-0.1831-0.14648-0.18311-0.21972-0.4834-0.022-0.10254-0.0439-0.20508-0.022-0.10986-0.0366-0.2124-0.0146-0.09521-0.0293-0.13184-0.0146-0.03662-0.0293-0.13916-0.0879 0.2124-0.21973 0.44678-0.12451 0.22705-0.29297 0.4248-0.16846 0.19043-0.38086 0.31494-0.20508 0.12451-0.4541 0.12451-0.26367 0-0.43945-0.12451-0.17579-0.13184-0.27832-0.32227-0.0952-0.19775-0.13916-0.43213-0.0366-0.23438-0.0366-0.44678 0-0.49805 0.0952-1.0767 0.10254-0.58594 0.27832-1.1646 0.17578-0.58594 0.41016-1.1206 0.23437-0.54199 0.51269-0.94482v0.0073l0.0439-0.06592q0.0806-0.10986 0.1831-0.23438 0.10986-0.13184 0.25635-0.13184 0.13916 0 0.2417 0.12451 0.10254 0.11719 0.14648 0.24902 0.19043 0.03662 0.30762 0.09521 0.11719 0.05127 0.18311 0.13184 0.0659 0.08057 0.0879 0.19043 0.022 0.10254 0.022 0.22705 0 0.05127 0 0.10986t-7e-3 0.11719q-7e-3 0.05859-7e-3 0.13916t0 0.14648q0 0.07324 0.022 0.19043 0.0293 0.11719 0.0586 0.2417l0.0513 0.271q0.0366 0.2124 0.0586 0.4834 0.0293 0.271 0.0659 0.54199 0.0293 0.27832 0.0586 0.54199 0.0293 0.25635 0.0586 0.47608l0.17578 1.084 0.022 0.12451q0.0147 0.09521 0.0293 0.17578 0.022 0.08057 0.022 0.1831zm-1.6772-4.2114q0-0.01465-7e-3 -0.04395-7e-3 -0.03662-0.0146-0.07324-0.16846 0.35889-0.30029 0.78369-0.12451 0.41748-0.21241 0.85693-0.0806 0.43213-0.12451 0.87158-0.0366 0.43213-0.0366 0.82031 0 0.03662 0 0.06592t7e-3 0.05859v0.0073q0.17578-0.271 0.30029-0.71045 0.13184-0.44678 0.21973-0.93018 0.0879-0.49072 0.12451-0.94482 0.0439-0.46142 0.0439-0.76172z"/><path d="m258.71 26.509q0 0.10254-0.0513 0.16846t-0.13184 0.10254q-0.0732 0.04395-0.16846 0.05859-0.0879 0.02197-0.16113 0.02197-0.25635 0-0.44678-0.14648t-0.32959-0.38086q-0.13916-0.22705-0.22705-0.52002-0.0879-0.30029-0.14648-0.59326-0.0586-0.30029-0.0879-0.57129-0.0293-0.27832-0.0439-0.47607-0.0659-0.68115-0.0952-1.3843-0.022-0.70312-0.022-1.3916 0-1.8823 0.13183-3.728 0-0.0293 0-0.06592 7e-3 -0.03662 7e-3 -0.07324 7e-3 -0.15381 0.0146-0.35156 7e-3 -0.20508 0.022-0.40283 0.0146-0.19775 0.0293-0.35889 0.022-0.16846 0.0513-0.23438v0.0073q0.0293-0.10254 0.0806-0.15381t0.17578-0.05127q0.26367 0 0.44678 0.17578 0.1831 0.17578 0.1831 0.43945 0 0.05859-7e-3 0.11719 0 0.05127-7e-3 0.10254t-0.0146 0.10254q0 0.04395 0 0.08057-0.022 0.28564-0.0366 0.57129-7e-3 0.27832-0.022 0.56396-0.0366 0.62988-0.0586 1.2598-0.0146 0.62256-0.0146 1.2598 0 0.271 7e-3 0.71045t0.0293 0.95947q0.022 0.5127 0.0586 1.062 0.0439 0.54932 0.10986 1.0474 0.0659 0.49805 0.15381 0.90088 0.0952 0.40283 0.21972 0.62256 0.0659 0.0293 0.12452 0.09521 0.0659 0.05859 0.10986 0.13916 0.0513 0.07324 0.0806 0.15381 0.0366 0.08789 0.0366 0.16113z"/><path d="m261.37 20.928q0 0.08789-0.0659 0.14648-0.0586 0.05859-0.14648 0.10254-0.0879 0.03662-0.18311 0.05127-0.0879 0.01465-0.14648 0.01465-0.0879 0-0.16846-0.01465-0.0806-0.02197-0.16113-0.04395-0.0806-0.02197-0.15381-0.03662-0.0732-0.02197-0.15381-0.02197-0.10986 0-0.21972 0.03662-0.10987 0.03662-0.19776 0.10254-0.0879 0.06592-0.14648 0.16113-0.0513 0.09521-0.0513 0.2124 0 0.17578 0.0732 0.35156 0.0732 0.16846 0.19043 0.34424 0.12451 0.17578 0.27832 0.35889 0.16113 0.17578 0.33691 0.35889 0.21241 0.23438 0.42481 0.47607 0.21973 0.2417 0.38818 0.50537 0.17578 0.26367 0.28565 0.55664 0.10986 0.29297 0.10986 0.61524 0 0.27832-0.0952 0.49805-0.0879 0.21973-0.25635 0.37354-0.16113 0.15381-0.39551 0.23438-0.22705 0.08789-0.49805 0.08789-0.0732 0-0.22705-0.0293-0.14648-0.0293-0.33691-0.08057-0.19043-0.05859-0.39551-0.12451-0.19775-0.06592-0.36621-0.13916-0.16113-0.08057-0.271-0.15381-0.10254-0.08057-0.10254-0.14648 0-0.08789 0.0806-0.17578 0.0806-0.09521 0.19043-0.16846 0.10986-0.08057 0.22705-0.13184 0.12451-0.05127 0.20508-0.05127 0.10986 0 0.22705 0.05127 0.12451 0.05127 0.24902 0.11719 0.13916 0.07324 0.27832 0.13184 0.14649 0.05859 0.3003 0.05859 0.11718 0 0.13183-0.08057 0.022-0.08057 0.022-0.18311 0-0.25635-0.0879-0.4834-0.0879-0.23438-0.22706-0.4541-0.13916-0.21973-0.32226-0.4248-0.18311-0.2124-0.36621-0.41748-0.19043-0.20508-0.37354-0.41016-0.17578-0.20508-0.31494-0.41748-0.13916-0.21973-0.22705-0.44678-0.0806-0.22705-0.0806-0.4834 0-0.31494 0.13916-0.56396 0.13916-0.25635 0.35889-0.43945 0.22705-0.18311 0.50537-0.27832 0.28565-0.10254 0.57129-0.10254 0.0952 0 0.29297 0.04395 0.19775 0.03662 0.38818 0.10986t0.33692 0.17578q0.14648 0.10254 0.14648 0.22705z"/></g><g transform="matrix(.56259 0 0 .56259 -754.8 -758.08)" fill-rule="evenodd"><path transform="matrix(.4703 0 0 .4703 1341.6 1755)" d="m83.039 67.08c-0.93762 0.0019-1.639 0.44296-2.5742 1.0625-0.93728 0.62067-2.0201 1.4894-3.2188 2.5762-2.3968 2.1735-5.2395 5.2133-8.0273 8.7832-5.4638 6.9962-13.024 24.998-14.025 33.535-9.1593 3.8742-17.48 13.902-20.557 26.379-0.65618 0.25686-5.6886 7.535-12.238 10.395-3.4525 1.5074-6.9098 3.0929-9.5352 4.4824-1.3128 0.69488-2.4132 1.3335-3.2363 1.9219-0.41166 0.29429-0.75388 0.5734-1.0371 0.88086-0.28344 0.30747-0.58984 0.65355-0.58984 1.291 0 0.92665 0.27788 2.3622 0.69336 4.332 0.4157 1.9698 0.21308 1.4296 0.98047 3.7207 0.79971 2.3822 2.4841 2.2513 3.0898 3.9961 12.787-4.1015 24.432-7.2826 35.553-15.615 0.14672-0.11482 0.32851-0.1782 0.51562-0.17969 0.75527 2e-3 1.1329 0.91297 0.60156 1.4492-9.4222 8.693-23.132 13.55-35.391 18.35 0.68723 0.60118 1.1014 1.743 2.6113 2.4453 1.5577 0.72443 3.3813 1.2905 5.1504 0.75976 0.52265-0.15735 2.9093-0.7142 6.0918-1.4941 3.1827-0.78015 7.2513-1.81 11.463-3.0156 4.2118-1.2056 8.5634-2.584 12.334-4.0703 2.9834 7.9327 16.561 10.613 18.834 19.855 7.1495-1.4427-0.05045-15.682 1.2715-14.738 6.0334 3.4946 10.879 2.8238 15.904 8.1641 0.06166-4.9061-0.78795-10.233-2.8613-14.178 6.3987 0.19775 11.019 3.1021 16.371 7.3086 1.603-6.0307-1.6245-10.804-5.3066-14.318 6.1264-2.1808 9.4109 1.7704 13.617 4.7207l0.53906-0.78516c1.6781-2.424 1.2619-5.7951-0.0371-9.4062-1.297-3.6109-3.5262-6.8952-6.1758-11.383-4.2018-7.117-8.9505-12.864-11.637-15.693-0.83075-0.87505-1.4564-1.433-2.0273-1.8945 0.35382-1.1611 2.9927-9.8512 5.5781-20.076 1.3813-5.4625 2.6882-11.164 3.5098-16.01 0.82161-4.8455 1.258-8.6987 0.51953-11.096l-0.26172-0.86328-0.89453 0.11914c-0.54476 0.07442-0.84806 0.30048-1.2363 0.57031-0.38827 0.26983-0.80882 0.61761-1.2832 1.0488-0.94876 0.86244-2.1002 2.049-3.3926 3.498-0.23815 0.267-0.52516 0.63487-0.77734 0.92969-0.24836 11.056-0.95767 27.25-4.5059 35.264 1.6764-15.584 2.0904-28.18 1.3047-39.324-1.003-5.9746-2.787-10.926-5.707-13.697zm-20.404 61.162c0.9703 0.0241 1.8719 0.62283 2.25 1.5859 0.50425 1.2843-0.12208 2.7204-1.4062 3.2246l-7.1738 2.8184c-0.05297 0.0206-0.10696 0.0104-0.16016 0.0273-0.14888 0.58513-0.408 1.1357-0.76172 1.625-1.5524 2.1429-4.5474 2.623-6.6914 1.0723-2.1452-1.5528-2.624-4.5507-1.0703-6.6953 1.5541-2.1433 4.55-2.6205 6.6934-1.0664 0.13333 0.0984 0.26223 0.20293 0.38477 0.31446l0.0059-4e-3c0.59794 0.82389 1.2445 1.7312 1.4082 3.4668 0.53642-0.38271 0.56427-2.2093-0.21289-3.9668l5.7559-2.2285c0.32107-0.12613 0.65509-0.18189 0.97852-0.17383z" color="#000000" color-rendering="auto" dominant-baseline="auto" fill="var(--tete, #c3880c)" image-rendering="auto" shape-rendering="auto" solid-color="#000000" style="font-feature-settings:normal;font-variant-alternates:normal;font-variant-caps:normal;font-variant-ligatures:normal;font-variant-numeric:normal;font-variant-position:normal;isolation:auto;mix-blend-mode:normal;shape-padding:0;text-decoration-color:#000000;text-decoration-line:none;text-decoration-style:solid;text-indent:0;text-orientation:mixed;text-transform:none;white-space:normal"/><path transform="matrix(.4703 0 0 .4703 1341.6 1755)" d="m82.396 68.455a0.81303 0.81303 0 0 0-0.50195 0.20703c-12.392 11.017-21.505 28.176-24.611 43.473a0.81303 0.81303 0 0 0 0.9375 0.96679c4.6087-0.81777 7.9527-0.68269 11.279 0.39844 3.3266 1.0811 6.6745 3.1466 11.125 6.252a0.81303 0.81303 0 0 0 1.2617-0.78906c-1.9728-12.701-0.80167-24.558 1.3594-49.621a0.81303 0.81303 0 0 0-0.84961-0.88672z" fill="var(--details, #e1a62a)"/><path d="m1379.6 1820.9-0.207 0.9785 0.4883 0.1035c1.3207 0.2801 1.9672 0.9659 2.3437 1.6973 0.2219 0.431 0.2038 0.736 0.2598 1.1074-1.4352-0.6074-3.0434-1.1059-5.2656-0.3653l-0.7754 0.2579 0.584 0.5742c1.3341 1.3067 1.8496 2.2725 2.2226 3.4707-1.691-0.6726-3.5294-1.0088-5.4726-0.6543l-0.4903 0.09 0.1778 0.9844 0.4922-0.09c2.1111-0.3852 4.1153-0.018 5.8652 0.9023l0.9473 0.498-0.2266-1.0468c-0.3397-1.5683-1.0082-2.7607-2.2031-4.1074 1.8521-0.3648 3.215 0.057 4.6152 0.7109l0.7109 0.332v-0.7851c0-0.4626-0.067-1.3934-0.5527-2.336-0.4853-0.9426-1.4293-1.8802-3.0254-2.2187z" color="#000000" color-rendering="auto" dominant-baseline="auto" fill="var(--details, #e1a62a)" image-rendering="auto" shape-rendering="auto" solid-color="#000000" style="font-feature-settings:normal;font-variant-alternates:normal;font-variant-caps:normal;font-variant-ligatures:normal;font-variant-numeric:normal;font-variant-position:normal;isolation:auto;mix-blend-mode:normal;shape-padding:0;text-decoration-color:#000000;text-decoration-line:none;text-decoration-style:solid;text-indent:0;text-orientation:mixed;text-transform:none;white-space:normal"/></g></g></svg>
