<svg width="256" height="256" version="1.1" viewBox="0 0 67.733 67.733" xmlns="http://www.w3.org/2000/svg"><g transform="translate(0 -229.27)"><g transform="matrix(1.1821 0 0 1.1821 -1585.2 -1882.6)" fill-rule="evenodd"><path transform="matrix(.23875 0 0 .23875 1339.1 1784.6)" d="m174.2 8c-1.8479 0.00314-3.2274 0.87294-5.0703 2.0938-1.8462 1.2226-3.9788 2.9316-6.3398 5.0723-4.7212 4.2814-10.321 10.271-15.812 17.303-10.763 13.781-25.655 49.241-27.627 66.057-18.042 7.6313-34.433 27.386-40.492 51.963-1.2925 0.50596-11.208 14.844-24.109 20.477-6.8007 2.9692-13.61 6.089-18.781 8.8262-2.5859 1.3688-4.7517 2.6282-6.373 3.7871-0.81088 0.57968-1.487 1.1287-2.0449 1.7344-0.55832 0.60565-1.1621 1.2892-1.1621 2.5449 0 1.8253 0.54877 4.6511 1.3672 8.5312 0.81884 3.8802 0.41809 2.8171 1.9297 7.3301 1.5753 4.6924 4.8927 4.4322 6.0859 7.8691 25.187-8.0791 48.128-14.344 70.033-30.758 0.289-0.22618 0.64704-0.34863 1.0156-0.35156 1.4877 4e-3 2.2322 1.7972 1.1855 2.8535-18.56 17.123-45.567 26.688-69.715 36.143 1.3537 1.1842 2.1723 3.4348 5.1465 4.8184 3.0684 1.427 6.6578 2.5415 10.143 1.4961 1.0295-0.30994 5.7331-1.407 12.002-2.9434 6.2692-1.5367 14.282-3.5646 22.578-5.9394 8.2964-2.3748 16.868-5.0899 24.295-8.0176 5.8768 15.626 32.621 20.906 37.1 39.111 14.083-2.8418-0.10003-30.893 2.5039-29.033 11.885 6.8837 21.43 5.5648 31.33 16.084 0.12147-9.6639-1.5526-20.159-5.6367-27.93 12.604 0.38953 21.705 6.1125 32.248 14.398 3.1576-11.879-3.202-21.285-10.455-28.207 12.068-4.2956 18.539 3.4913 26.824 9.3027l1.0645-1.5469c3.3055-4.7748 2.4825-11.416-0.0762-18.529-2.5549-7.1128-6.9449-13.582-12.164-22.422-8.2767-14.019-17.631-25.341-22.922-30.914-1.6364-1.7237-2.8676-2.8213-3.9922-3.7305 0.69695-2.2871 5.8936-19.404 10.986-39.545 2.7208-10.76 5.2937-21.99 6.9121-31.535 1.6184-9.5446 2.4781-17.138 1.0234-21.859l-0.51562-1.7012-1.7598 0.23633c-1.0731 0.1466-1.6727 0.58958-2.4375 1.1211-0.7648 0.53151-1.5929 1.2209-2.5273 2.0703-1.8689 1.6988-4.1379 4.0323-6.6836 6.8867-0.46911 0.52594-1.0326 1.2533-1.5293 1.834-0.48921 21.777-1.8858 53.675-8.875 69.461 3.3022-30.698 4.116-55.511 2.5684-77.463-1.9756-11.769-5.4882-21.519-11.24-26.979zm-40.195 120.48h2e-3c1.9105 0.0482 3.689 1.2246 4.4336 3.1211 0.99327 2.5299-0.24194 5.3604-2.7715 6.3535l-14.131 5.5508c-0.10434 0.0407-0.21163 0.0194-0.31641 0.0527-0.29326 1.1526-0.80129 2.2412-1.498 3.2051-3.0579 4.2211-8.9583 5.166-13.182 2.1113-4.2256-3.0588-5.1698-8.9651-2.1094-13.189 3.0612-4.2219 8.9655-5.1628 13.188-2.1016 0.26263 0.19372 0.51448 0.39946 0.75586 0.61914l0.01-6e-3c1.1778 1.6229 2.451 3.4093 2.7734 6.8281 1.0566-0.75387 1.1129-4.3505-0.41797-7.8125l11.338-4.3926c0.63181-0.24819 1.2893-0.35545 1.9258-0.33984z" color="#000000" color-rendering="auto" dominant-baseline="auto" fill="var(--tete, #c3880c)" image-rendering="auto" shape-rendering="auto" solid-color="#000000" style="font-feature-settings:normal;font-variant-alternates:normal;font-variant-caps:normal;font-variant-ligatures:normal;font-variant-numeric:normal;font-variant-position:normal;isolation:auto;mix-blend-mode:normal;shape-padding:0;text-decoration-color:#000000;text-decoration-line:none;text-decoration-style:solid;text-indent:0;text-orientation:mixed;text-transform:none;white-space:normal"/><path transform="matrix(.23875 0 0 .23875 1339.1 1784.6)" d="m172.94 10.715a1.6015 1.6015 0 0 0-0.98828 0.39844c-24.411 21.702-42.366 55.513-48.484 85.645a1.6015 1.6015 0 0 0 1.8516 1.8906c9.0782-1.6108 15.668-1.3327 22.221 0.79687 6.5528 2.1296 13.142 6.1877 21.908 12.305a1.6015 1.6015 0 0 0 2.4961-1.5566c-3.8859-25.019-1.5928-48.374 2.6641-97.744a1.6015 1.6015 0 0 0-1.668-1.7344z" fill="var(--details, #e1a62a)"/><path d="m1379.6 1820.9-0.207 0.9785 0.4883 0.1035c1.3207 0.2801 1.9672 0.9659 2.3437 1.6973 0.2219 0.431 0.2038 0.736 0.2598 1.1074-1.4352-0.6074-3.0434-1.1059-5.2656-0.3653l-0.7754 0.2579 0.584 0.5742c1.3341 1.3067 1.8496 2.2725 2.2226 3.4707-1.691-0.6726-3.5294-1.0088-5.4726-0.6543l-0.4903 0.09 0.1778 0.9844 0.4922-0.09c2.1111-0.3852 4.1153-0.018 5.8652 0.9023l0.9473 0.498-0.2266-1.0468c-0.3397-1.5683-1.0082-2.7607-2.2031-4.1074 1.8521-0.3648 3.215 0.057 4.6152 0.7109l0.7109 0.332v-0.7851c0-0.4626-0.067-1.3934-0.5527-2.336-0.4853-0.9426-1.4293-1.8802-3.0254-2.2187z" color="#000000" color-rendering="auto" dominant-baseline="auto" fill="var(--details, #e1a62a)" image-rendering="auto" shape-rendering="auto" solid-color="#000000" style="font-feature-settings:normal;font-variant-alternates:normal;font-variant-caps:normal;font-variant-ligatures:normal;font-variant-numeric:normal;font-variant-position:normal;isolation:auto;mix-blend-mode:normal;shape-padding:0;text-decoration-color:#000000;text-decoration-line:none;text-decoration-style:solid;text-indent:0;text-orientation:mixed;text-transform:none;white-space:normal"/></g></g></svg>
