<?xml version="1.0" encoding="UTF-8" standalone="no"?>
<svg
   xmlns:svg="http://www.w3.org/2000/svg"
   xmlns="http://www.w3.org/2000/svg"
   width="139.8036"
   height="194.77419"
   id="svg2"
   version="1.1">
  <g
     id="layer1"
     transform="translate(-311.95374,-240.41329)">
    <flowRoot
       xml:space="preserve"
       id="flowRoot2993"
       style="font-size:16px;font-style:normal;font-variant:normal;font-weight:normal;font-stretch:normal;line-height:125%;letter-spacing:0px;word-spacing:0px;fill:#000000;fill-opacity:1;stroke:none;font-family:Arial;-inkscape-font-specification:Arial"
       transform="matrix(0.68435326,0,0,0.69162317,-71.264102,126.28822)"><flowRegion
         id="flowRegion2995"><rect
           id="rect2997"
           width="167.14285"
           height="132.85715"
           x="275.71429"
           y="472.36218" /></flowRegion><flowPara
         id="flowPara2999" /></flowRoot>    <g
       id="g3798">
      <path
         id="rect3037"
         d="m 322.21256,269.40253 119.28595,0 c 5.68339,0 10.25883,4.57543 10.25883,10.25882 l 0,120.77109 c 0,5.68339 -4.57544,10.25883 -10.25883,10.25883 l -54.31769,0 c 0,0 -8.48073,18.23114 -33.60955,24.4962 13.06521,-14.38836 5.02878,-24.4962 5.02878,-24.4962 l -36.38749,0 c -5.68339,0 -10.25882,-4.57544 -10.25882,-10.25883 l 0,-120.77109 c 0,-5.68339 4.57543,-10.25882 10.25882,-10.25882 z"
         style="fill:#941320;fill-opacity:1;stroke:none" />
      <g
         transform="matrix(0.88182777,0,0,0.89119546,122.61325,-139.84814)"
         style="font-size:20px;font-style:normal;font-variant:normal;font-weight:normal;font-stretch:normal;line-height:125%;letter-spacing:0px;word-spacing:0px;fill:#ffffff;fill-opacity:1;stroke:none;font-family:Arial;-inkscape-font-specification:Arial"
         id="flowRoot3039">
        <path
           d="m 322.20898,560.51439 c -6e-5,9.21682 -3.50396,16.5132 -10.51171,21.88916 -7.00786,5.37598 -15.50395,8.06397 -25.48829,8.06397 -6.72072,0 -12.26515,-1.70362 -16.6333,-5.11084 -4.36817,-3.40722 -6.79248,-6.312 -7.27295,-8.71436 1.05762,-3.16698 3.31421,-6.71849 6.76978,-10.65454 3.45555,-3.93601 6.57494,-6.33615 9.35815,-7.20044 4.89549,3.16995 9.45554,10.2261 13.68018,21.16846 6.2402,-0.19042 9.36031,-3.59765 9.36035,-10.22168 -4e-5,-3.65037 -1.46415,-8.13938 -4.39233,-13.46704 -2.92826,-5.3276 -6.12015,-10.31905 -9.57569,-14.97437 -3.45559,-4.65522 -6.64748,-9.8869 -9.57568,-15.69507 -2.92824,-5.80803 -4.39235,-10.96794 -4.39233,-15.47973 -2e-5,-7.29777 2.95237,-13.05826 8.85717,-17.2815 5.90476,-4.22304 12.55295,-6.33461 19.94458,-6.33471 7.39156,10e-5 13.12715,1.58359 17.20679,4.75048 4.07953,3.16709 6.11932,6.76694 6.11939,10.79957 -7e-5,4.03279 -1.53596,8.16145 -4.60767,12.38598 -3.07184,4.22468 -6.14434,7.58356 -9.21753,10.07666 l -4.60547,3.74414 c 1.15132,1.53815 2.54292,3.5069 4.17481,5.90625 1.63178,2.39947 3.84003,6.47905 6.62475,12.23877 2.78461,5.7598 4.17694,10.46341 4.177,14.11084 z m -11.01709,-47.22803 c 1.29487,-1.24797 2.47041,-2.76042 3.52662,-4.53735 1.05609,-1.77677 1.58417,-3.64884 1.58422,-5.61621 -5e-5,-1.9672 -1.15215,-3.6232 -3.45629,-4.96802 -2.30425,-1.34463 -5.06402,-2.01699 -8.2793,-2.01709 -3.21537,10e-5 -5.90336,0.74424 -8.06397,2.23242 -2.16068,1.48837 -3.241,3.2645 -3.24096,5.32837 -4e-5,2.06405 0.6965,4.4642 2.0896,7.20044 1.39303,2.73641 2.76046,5.0157 4.10229,6.83789 l 2.16211,2.7378 c 0.9609,-0.4804 2.47335,-1.48821 4.53735,-3.02344 2.06392,-1.53508 3.74336,-2.92668 5.03833,-4.17481 z"
           style="font-size:144px;fill:#ffffff;font-family:Oleo Script;-inkscape-font-specification:Oleo Script"
           id="path3022" />
      </g>
      <path
         style="fill:#7bc711;fill-opacity:1;stroke:none"
         d="m 382.16157,278.85661 c -16.419,-24.99573 15.35771,-25.8459 22.44565,-38.44332 13.75073,31.43064 0.3962,46.07651 -22.44565,38.44332 z"
         id="path3047" />
    </g>
    <g
       transform="matrix(0.67050939,-0.13840941,0.13695454,0.67763223,84.546032,5.4910514)"
       style="fill:#7f0a0f;fill-opacity:1;stroke:none"
       id="g3049">
      <g
         style="fill:#7f0a0f;fill-opacity:1;stroke:none"
         id="g3051" />
    </g>
  </g>
</svg>
