<?xml version="1.0" encoding="UTF-8" standalone="no"?>
<svg
   xmlns:svg="http://www.w3.org/2000/svg"
   xmlns="http://www.w3.org/2000/svg"
   width="252.55273"
   height="79.775391"
   version="1.1">
  <g
     transform="translate(-162.46094,-540.70214)">
      <path
         d="m 199.08594,583.59667 c -3e-5,4.09637 -1.55732,7.3392 -4.67188,9.72852 -3.1146,2.38932 -6.89064,3.58398 -11.32812,3.58398 -2.98699,0 -5.45118,-0.75716 -7.39258,-2.27148 -1.94141,-1.51432 -3.01888,-2.80533 -3.23242,-3.87305 0.47005,-1.40754 1.47298,-2.98599 3.00879,-4.73535 1.5358,-1.74934 2.92219,-2.81607 4.15918,-3.20019 2.17577,1.40886 4.20246,4.54493 6.08007,9.4082 2.77342,-0.0846 4.16014,-1.59895 4.16016,-4.54297 -2e-5,-1.62239 -0.65073,-3.6175 -1.95215,-5.98535 -1.30145,-2.36782 -2.72006,-4.58625 -4.25586,-6.65527 -1.53582,-2.06899 -2.95443,-4.39418 -4.25586,-6.97559 -1.30144,-2.58135 -1.95215,-4.87464 -1.95215,-6.87988 0,-3.24345 1.31217,-5.80367 3.93653,-7.68067 2.62433,-1.87691 5.57908,-2.81538 8.86426,-2.81543 3.28513,5e-5 5.83428,0.70382 7.64746,2.11133 1.81312,1.4076 2.71969,3.00753 2.71972,4.79981 -3e-5,1.79235 -0.68264,3.62731 -2.04785,5.50488 -1.36526,1.87763 -2.73082,3.37047 -4.09668,4.47851 l -2.04687,1.66407 c 0.51169,0.68362 1.13018,1.55862 1.85547,2.625 0.72523,1.06643 1.70668,2.87958 2.94433,5.43945 1.23761,2.55991 1.85642,4.6504 1.85645,6.27148 z m -4.89649,-20.99023 c 0.5755,-0.55465 1.09796,-1.22685 1.56739,-2.0166 0.46937,-0.78968 0.70407,-1.62171 0.7041,-2.4961 -3e-5,-0.87431 -0.51207,-1.61031 -1.53614,-2.208 -1.02411,-0.59762 -2.25067,-0.89645 -3.67968,-0.89649 -1.42906,4e-5 -2.62372,0.33077 -3.58399,0.99219 -0.9603,0.6615 -1.44044,1.45088 -1.44043,2.36816 -1e-5,0.91736 0.30956,1.98409 0.92871,3.2002 0.61913,1.21618 1.22688,2.2292 1.82325,3.03906 l 0.96093,1.2168 c 0.42707,-0.21351 1.09927,-0.66143 2.01661,-1.34375 0.91729,-0.68226 1.66371,-1.30075 2.23925,-1.85547 z"
         style="fill:var(--texte, #000000);" />
      <path
         d="m 201.12695,610.47753 c -0.21354,-0.51173 -0.32031,-1.64226 -0.32031,-3.3916 0,-1.74936 0.83203,-6.45345 2.49609,-14.1123 1.66406,-7.65885 2.49609,-13.55728 2.4961,-17.69532 -1e-5,-0.81117 -0.19206,-1.67543 -0.57617,-2.59277 -0.38412,-0.91729 -0.78972,-1.63181 -1.2168,-2.14355 l -0.57617,-0.70508 0.0644,-0.83203 c 2.0052,-0.6393 5.54687,-0.95896 10.625,-0.95899 0.46874,0.89586 0.76691,2.15433 0.89453,3.77539 3.28644,-2.68747 6.0283,-4.03122 8.22559,-4.03125 2.19724,3e-5 3.96775,0.91735 5.31152,2.75196 1.34372,1.83466 2.0156,4.5228 2.01563,8.06445 -3e-5,6.18621 -1.13057,10.78321 -3.39161,13.79102 -2.26109,3.00781 -5.12013,4.51171 -8.57714,4.51171 -1.79169,0 -3.28452,-0.25586 -4.47852,-0.76757 l -0.64062,-0.25586 0.44726,-2.4961 c 0.3841,0.0859 0.83202,0.12891 1.34375,0.12891 1.10936,0 2.08006,-0.51204 2.91211,-1.53613 0.83201,-1.02409 1.46157,-2.32584 1.88867,-3.90528 0.85285,-3.15754 1.27928,-6.08006 1.2793,-8.76758 -2e-5,-3.83982 -0.78908,-5.75974 -2.36719,-5.75976 -1.23699,2e-5 -2.55991,0.49091 -3.96875,1.47266 -0.17058,2.98569 -1.04493,8.21192 -2.62305,15.67871 -1.57813,7.46679 -2.36719,13.48274 -2.36718,18.04785 -2.3047,0.93879 -5.27019,1.51496 -8.89649,1.72851 z"
         style="fill:var(--texte, #000000);" />
      <path
         d="m 246.73047,571.75878 c -2e-5,1.79169 -0.57586,4.87405 -1.72754,9.24707 -1.15171,4.37306 -1.72755,7.23146 -1.72754,8.5752 -10e-6,1.34375 0.19139,2.01563 0.57422,2.01562 0.2565,10e-6 1.23827,-0.40494 2.94531,-1.21484 l 0.76758,-0.38477 1.08789,2.24024 c -0.38413,0.34115 -0.89617,0.76791 -1.53613,1.28027 -0.63999,0.51237 -1.83465,1.20573 -3.58399,2.08008 -1.74936,0.87435 -3.37077,1.31152 -4.86425,1.31152 -1.4935,0 -2.66668,-0.45865 -3.51954,-1.37597 -0.85286,-0.91732 -1.27929,-2.15462 -1.27929,-3.71192 0,-1.55728 0.5332,-4.33039 1.59961,-8.31933 1.0664,-3.98892 1.5996,-6.58104 1.59961,-7.77637 -1e-5,-1.79164 -0.5547,-3.47719 -1.66407,-5.05664 l -0.57617,-0.76758 0.0645,-0.83203 c 2.26172,-0.63929 5.93099,-0.95896 11.00782,-0.95898 0.55467,0.63935 0.83201,1.85549 0.83203,3.64843 z m -7.29688,-10.65625 c -0.85287,-0.83199 -1.2793,-1.95211 -1.27929,-3.36035 -1e-5,-1.40816 0.58658,-2.64579 1.75976,-3.71289 1.17317,-1.06701 2.52799,-1.60054 4.06446,-1.60058 1.53644,4e-5 2.7311,0.4268 3.58398,1.28027 0.85285,0.85356 1.27928,1.97367 1.2793,3.36035 -2e-5,1.38676 -0.60777,2.61332 -1.82325,3.67969 -1.2155,1.06644 -2.57,1.59964 -4.06347,1.59961 -1.4935,3e-5 -2.66733,-0.41533 -3.52149,-1.2461 z"
         style="fill:var(--texte, #000000);" />
      <path
         d="m 265.57812,570.98925 c -1.70704,3e-5 -3.0726,1.41865 -4.09667,4.25586 -1.0241,2.83726 -1.53615,5.87762 -1.53614,9.1211 -1e-5,5.11979 1.57877,7.67969 4.73633,7.67968 1.02342,10e-6 2.11131,-0.24544 3.26367,-0.73633 1.15233,-0.49088 2.06964,-0.97069 2.75196,-1.43945 l 0.96093,-0.76758 1.47071,1.98243 c -0.34117,0.47005 -1.02379,1.08887 -2.04786,1.85644 -1.0241,0.76758 -1.98406,1.40755 -2.87988,1.91992 -0.89585,0.51237 -2.04787,0.98177 -3.45605,1.40821 -1.40822,0.42643 -2.79461,0.63964 -4.15918,0.63964 -3.32814,0 -5.82423,-1.08789 -7.48828,-3.26367 -1.66407,-2.17577 -2.4961,-5.0983 -2.4961,-8.76758 0,-5.0781 1.39746,-9.19561 4.19239,-12.35253 2.79491,-3.15688 6.38963,-4.73533 10.78417,-4.73536 2.85806,3e-5 5.12987,0.65075 6.81543,1.95215 1.68553,1.30146 2.5283,2.90139 2.52832,4.79981 -2e-5,1.89845 -0.59768,3.53061 -1.79296,4.89648 -1.06643,2e-5 -2.30374,-0.23468 -3.71192,-0.7041 -1.40822,-0.46938 -2.47495,-1.04588 -3.20019,-1.72949 l 0.96093,-5.63086 c -0.38413,-0.25649 -0.91733,-0.38474 -1.59961,-0.38477 z"
         style="fill:var(--texte, #000000);" />
      <path
         d="m 275.97656,585.06933 c 0,-5.33332 1.61068,-9.54653 4.83203,-12.63965 3.22135,-3.09307 6.8802,-4.63962 10.97657,-4.63965 2.5169,3e-5 4.58591,0.61852 6.20703,1.85547 1.62107,1.23701 2.43161,2.89033 2.43164,4.95996 -3e-5,2.06968 -0.52249,3.80861 -1.56738,5.2168 -1.04495,1.40822 -2.31415,2.49578 -3.80762,3.2627 -3.02997,1.4935 -5.8034,2.4323 -8.32031,2.8164 l -1.53516,0.19141 c 0.29817,4.01172 1.94074,6.01758 4.92773,6.01758 1.02342,0 2.11131,-0.25618 3.26368,-0.76856 1.15232,-0.51236 2.04815,-1.02441 2.6875,-1.53613 l 0.96093,-0.76758 1.53516,2.04688 c -0.34117,0.47005 -1.02379,1.08887 -2.04785,1.85644 -1.02411,0.76758 -1.98407,1.40788 -2.87989,1.9209 -2.47527,1.36458 -5.1849,2.04687 -8.1289,2.04687 -2.94402,0 -5.26921,-1.04524 -6.97559,-3.13574 -1.70638,-2.09049 -2.55957,-4.99185 -2.55957,-8.7041 z m 9.15235,-2.11133 c 2.17576,-0.3841 3.90363,-1.30142 5.18359,-2.75195 1.27993,-1.4505 1.9199,-3.32778 1.91992,-5.63184 -2e-5,-2.30401 -0.68296,-3.45603 -2.04883,-3.45605 -1.6211,2e-5 -2.86882,1.376 -3.74316,4.12793 -0.87436,2.75197 -1.31153,5.3226 -1.31152,7.71191 z"
         style="fill:var(--texte, #000000);" />
      <path
         d="m 307.97266,567.79003 c 1.85545,3e-5 3.24185,0.38382 4.15918,1.15137 0.9173,0.76761 1.37596,2.34605 1.37597,4.73535 -1e-5,1.27997 -0.3838,3.89358 -1.15136,7.84082 -0.76759,3.94728 -1.15138,6.34734 -1.15137,7.2002 -1e-5,1.70703 0.34113,2.56055 1.02344,2.56054 1.62108,10e-6 3.40232,-1.20539 5.34375,-3.61621 1.94138,-2.41079 2.95505,-4.42674 3.04101,-6.04785 l -4.35351,-4.86523 c 0.17055,-1.83462 0.61879,-3.49835 1.34472,-4.99121 0.7259,-1.49282 1.40851,-2.53806 2.04785,-3.13575 l 0.89649,-0.83203 c 1.83461,3e-5 3.22133,0.49059 4.16015,1.47168 0.93878,0.98115 1.40818,2.13317 1.40821,3.45606 -3e-5,3.37111 -0.83206,6.93393 -2.4961,10.68847 -1.66408,3.75457 -3.88283,6.9437 -6.65625,9.56739 -2.77345,2.6237 -5.58985,3.93554 -8.44922,3.93554 -1.79167,0 -3.16732,-0.55468 -4.12695,-1.66406 -0.95964,-1.10937 -1.43945,-2.57063 -1.43945,-4.38379 0,-1.81314 0.13867,-4.25585 0.41601,-7.32812 0.27734,-3.07225 0.41602,-6.12271 0.41602,-9.15137 0,-0.68227 -0.24545,-1.49281 -0.73633,-2.43164 -0.49089,-0.93878 -0.99219,-1.68552 -1.5039,-2.24023 l 0.1914,-0.76758 c 2.30469,-0.7682 4.38476,-1.15232 6.24024,-1.15235 z"
         style="fill:var(--texte, #000000);" />
      <path
         d="m 326.72656,585.06933 c 0,-5.33332 1.61068,-9.54653 4.83203,-12.63965 3.22135,-3.09307 6.8802,-4.63962 10.97657,-4.63965 2.5169,3e-5 4.58591,0.61852 6.20703,1.85547 1.62107,1.23701 2.43161,2.89033 2.43164,4.95996 -3e-5,2.06968 -0.52249,3.80861 -1.56738,5.2168 -1.04495,1.40822 -2.31415,2.49578 -3.80762,3.2627 -3.02997,1.4935 -5.8034,2.4323 -8.32031,2.8164 l -1.53516,0.19141 c 0.29817,4.01172 1.94074,6.01758 4.92773,6.01758 1.02342,0 2.11131,-0.25618 3.26368,-0.76856 1.15232,-0.51236 2.04815,-1.02441 2.6875,-1.53613 l 0.96093,-0.76758 1.53516,2.04688 c -0.34117,0.47005 -1.02379,1.08887 -2.04785,1.85644 -1.02411,0.76758 -1.98407,1.40788 -2.87989,1.9209 -2.47527,1.36458 -5.1849,2.04687 -8.1289,2.04687 -2.94402,0 -5.26921,-1.04524 -6.97559,-3.13574 -1.70638,-2.09049 -2.55957,-4.99185 -2.55957,-8.7041 z m 9.15235,-2.11133 c 2.17576,-0.3841 3.90363,-1.30142 5.18359,-2.75195 1.27993,-1.4505 1.9199,-3.32778 1.91992,-5.63184 -2e-5,-2.30401 -0.68296,-3.45603 -2.04883,-3.45605 -1.6211,2e-5 -2.86882,1.376 -3.74316,4.12793 -0.87436,2.75197 -1.31153,5.3226 -1.31152,7.71191 z"
         style="fill:var(--texte, #000000);" />
      <path
         d="m 354.21094,596.333 -1.2168,0 c 0,-2.0052 0.60807,-5.84504 1.82422,-11.51953 1.21614,-5.67446 1.82421,-8.89581 1.82422,-9.66406 -1e-5,-1.40753 -0.59766,-2.90102 -1.79297,-4.48047 l -0.57422,-0.76758 0.0625,-0.83203 c 2.30468,-0.63929 5.99543,-0.95896 11.07227,-0.95898 0.55467,0.72528 0.8535,2.04755 0.89648,3.96679 3.71222,-2.85804 6.84829,-4.28708 9.4082,-4.28711 1.53513,3e-5 2.76137,0.53323 3.67871,1.59961 0.91729,1.06643 1.37595,2.39977 1.37598,4 -3e-5,1.60028 -0.49059,4.36298 -1.47168,8.28809 -0.98115,3.92514 -1.47171,6.55958 -1.47168,7.90332 -3e-5,1.34375 0.17055,2.01563 0.51172,2.01562 0.25648,10e-6 1.15297,-0.40494 2.68945,-1.21484 l 0.76758,-0.38477 1.15235,2.24024 c -0.38415,0.34115 -0.89619,0.76791 -1.53614,1.28027 -0.64,0.51237 -1.82424,1.20573 -3.55273,2.08008 -1.72854,0.87435 -3.27509,1.31152 -4.63965,1.31152 -3.1146,0 -4.67189,-1.77083 -4.67188,-5.3125 -1e-5,-1.49218 0.4798,-4.2438 1.43946,-8.25488 0.95961,-4.01105 1.43943,-6.59243 1.43945,-7.74414 -2e-5,-1.15167 -0.36265,-1.72752 -1.08789,-1.72754 -1.237,2e-5 -2.75132,0.53323 -4.54297,1.59961 -0.12892,0.72528 -0.556,2.6452 -1.28125,5.75977 -1.4922,6.69922 -2.23829,11.43555 -2.23828,14.20898 -1.4935,0.59636 -4.18165,0.89453 -8.06445,0.89453 z"
         style="fill:var(--texte, #000000);" />
      <path
         d="m 405.01367,568.55761 c -0.0847,1.06643 -0.44729,2.30406 -1.08789,3.71289 -1.62111,-0.17185 -3.15692,-0.25779 -4.60742,-0.25781 l -1.15234,0 c -1.96226,9.51564 -2.94338,15.44662 -2.94336,17.79297 -2e-5,1.23698 0.26659,1.85547 0.7998,1.85547 0.53319,0 1.95213,-0.5332 4.25684,-1.59961 l 1.15039,2.11133 c -3.79689,3.15755 -7.31642,4.73632 -10.5586,4.73632 -1.49349,0 -2.72038,-0.4694 -3.68066,-1.4082 -0.96029,-0.9388 -1.44043,-2.18685 -1.44043,-3.74414 0,-1.55729 0.18131,-3.31705 0.54395,-5.2793 0.36262,-1.96222 0.86392,-4.36196 1.5039,-7.19922 0.63997,-2.83722 1.1097,-5.13083 1.40918,-6.88085 -1.57943,0.12762 -2.75326,0.25588 -3.52148,0.38476 -0.0846,-0.513 -0.12696,-1.20668 -0.12696,-2.08105 0,-0.87433 0.0638,-1.58884 0.19141,-2.14356 l 4.0332,0 c 0.34114,-2.30335 0.51171,-4.47913 0.51172,-6.52734 l -0.0644,-1.98438 0,-0.1914 c 3.32811,-1.15231 6.46418,-1.72848 9.4082,-1.72852 0.17056,0.8529 0.25584,1.91931 0.25586,3.19922 -2e-5,1.27998 -0.36265,3.69079 -1.08789,7.23242 z"
         style="fill:var(--texte, #000000);" />
  </g>
</svg>
