<?xml version="1.0" encoding="UTF-8" standalone="no"?>
<svg
   xmlns:svg="http://www.w3.org/2000/svg"
   xmlns="http://www.w3.org/2000/svg"
   width="139.8125"
   height="198.125"
   version="1.1">
  <g
     transform="translate(-311.95374,-237.06954)">
      <path
         style="fill:var(--couleur, #000000);fill-opacity:1;stroke:none;"
         d="m 92.8125,-3.34375 -1.46875,2.625 c -1.54065,2.73819 -4.63243,5.05068 -8.28125,7.25 -3.64882,2.19932 -7.81075,4.28348 -11.34375,6.84375 -3.533,2.56027 -6.51977,5.69579 -7.40625,10 -0.356581,1.731341 -0.333427,3.588435 0.0625,5.625 L 10.25,29 C 4.56661,29 0,33.56661 0,39.25 l 0,120.78125 c 0,5.68339 4.56661,10.25 10.25,10.25 l 36.40625,0 c 0,0 8.03396,10.11164 -5.03125,24.5 25.12882,-6.26506 33.59375,-24.5 33.59375,-24.5 l 54.3125,0 c 5.68339,0 10.28125,-4.56661 10.28125,-10.25 l 0,-120.78125 c 0,-5.68339 -4.59786,-10.25 -10.28125,-10.25 l -30.625,0 C 100.82241,21.718939 99.399468,11.748046 94,-0.59375 l -1.1875,-2.75 z m -0.625,6.5625 c 5.58002,14.01763 5.49346,24.21487 1.71875,29.8125 C 91.89654,36.01151 88.92096,37.86411 85,38.59375 81.20569,39.29982 76.46818,38.85874 71.15625,37.15625 67.45506,31.3615 66.59369,27.15542 67.25,23.96875 c 0.67531,-3.27891 2.97395,-5.83608 6.21875,-8.1875 3.2448,-2.35142 7.3353,-4.40327 11.125,-6.6875 2.84228,-1.71317 5.57359,-3.55971 7.59375,-5.875 z M 77.28125,53.3125 c 6.518076,9.1e-5 11.558705,1.396431 15.15625,4.21875 3.59744,2.822493 5.406192,6.031144 5.40625,9.625 -5.8e-5,3.594011 -1.353778,7.297617 -4.0625,11.0625 -2.70883,3.765015 -5.414978,6.746913 -8.125,8.96875 l -4.0625,3.34375 c 1.015265,1.370788 2.248458,3.111704 3.6875,5.25 1.438951,2.138393 3.356854,5.77322 5.8125,10.90625 2.455544,5.13311 3.687445,9.34318 3.6875,12.59375 -5.5e-5,8.21398 -3.070368,14.70896 -9.25,19.5 -6.179723,4.79105 -13.695533,7.1875 -22.5,7.1875 -5.92652,0 -10.804294,-1.526 -14.65625,-4.5625 -3.851973,-3.0365 -5.982562,-5.64028 -6.40625,-7.78125 0.932633,-2.8224 2.921531,-5.96096 5.96875,-9.46875 3.047203,-3.50775 5.79568,-5.66725 8.25,-6.4375 4.316974,2.82504 8.337098,9.12322 12.0625,18.875 5.502778,-0.1697 8.249963,-3.22169 8.25,-9.125 -3.7e-5,-3.25319 -1.292847,-7.25201 -3.875,-12 -2.582218,-4.74793 -5.390313,-9.19495 -8.4375,-13.34375 -3.047236,-4.148712 -5.85533,-8.792542 -8.4375,-13.96875 -2.582201,-5.176096 -3.875012,-9.791611 -3.875,-13.8125 -1.2e-5,-6.503736 2.605482,-11.642521 7.8125,-15.40625 5.206979,-3.763558 11.0756,-5.624909 17.59375,-5.625 z M 79.25,61.90625 c -2.835406,8.3e-5 -5.219718,0.673732 -7.125,2 -1.905347,1.326429 -2.843779,2.910682 -2.84375,4.75 -2.9e-5,1.83947 0.584025,3.967719 1.8125,6.40625 1.228412,2.43867 2.441733,4.46982 3.625,6.09375 l 1.90625,2.4375 c 0.847344,-0.42813 2.1799,-1.319314 4,-2.6875 1.820019,-1.368059 3.295558,-2.60643 4.4375,-3.71875 1.141852,-1.112185 2.193608,-2.478905 3.125,-4.0625 0.931295,-1.583453 1.4062,-3.24669 1.40625,-5 -5e-5,-1.753158 -1.030642,-3.239006 -3.0625,-4.4375 C 84.499299,62.489168 82.085327,61.906333 79.25,61.90625 z"
         transform="translate(311.95374,240.41329)" />
  </g>
</svg>
